<?xml version="1.0" encoding="utf-8"?>
<!-- Generator: Adobe Illustrator 16.0.0, SVG Export Plug-In . SVG Version: 6.00 Build 0)  -->
<!DOCTYPE svg PUBLIC "-//W3C//DTD SVG 1.1//EN" "http://www.w3.org/Graphics/SVG/1.1/DTD/svg11.dtd">
<svg version="1.1" id="svg4488" xmlns:svg="http://www.w3.org/2000/svg"
	 xmlns="http://www.w3.org/2000/svg" xmlns:xlink="http://www.w3.org/1999/xlink" x="0px" y="0px" width="1024px" height="738px"
	 viewBox="0 0 1024 738" enable-background="new 0 0 1024 738" xml:space="preserve">
<path id="path3061" fill="#FFFFFF" d="M1000.828,627.153c0,48.596-39.567,87.993-88.344,87.993H107.572
	c-48.787,0-88.333-39.397-88.333-87.993v-520.25c0-48.596,39.546-87.983,88.333-87.983h804.913
	c48.775,0,88.344,39.387,88.344,87.983V627.153z"/>
<path id="path3065" fill="#009BDA" d="M572.98,427.744c0,45.208,36.486,81.854,81.492,81.854s81.481-36.646,81.481-81.854
	c0-45.218-36.477-81.864-81.482-81.864C609.467,345.88,572.98,382.526,572.98,427.744 M855.783,283.029v289.42H738.239v-16.019
	c-46.567,23.4-67.981,25.28-94.483,25.28c-16.029,0-57.402-2.104-95.111-21.616c-50.125-25.938-76.596-73.707-76.596-138.162
	c0-39.109,12.1-71.083,35.945-94.972c44.104-44.199,115.567-47.47,136.42-47.396h1.73c37.008-0.106,67.918,6.873,92.095,20.798
	v-17.335L855.783,283.029L855.783,283.029z"/>
<path id="path3069" d="M795.886,164.826h61.13v17.505h-19.63v49.18h-21.871v-49.18h-19.629V164.826z"/>
<path id="path3073" d="M368.696,231.511v-66.675h31.868c14.997,0,26.947,3.516,26.947,16.751c0,6.862-4.439,11.854-8.71,14.542
	c7.224,1.859,11.121,8.073,11.121,15.296c0,14.914-11.396,20.086-28.723,20.086H368.696z M390.567,180.376v11.132h9.06
	c4.355,0,7.511-1.954,7.511-5.842c0-5.194-4.271-5.29-8.9-5.29H390.567L390.567,180.376z M390.567,203.639v12.311h9.528
	c5.375,0,9.454-1.116,9.454-6.119c0-5.832-5.099-6.192-12.046-6.192H390.567z"/>
<path id="path3077" d="M503.618,231.511l23.898-66.675h22.232l23.899,66.675h-21.766l-2.603-8.784h-21.766l-2.496,8.784H503.618z
	 M538.448,184.934l-6.756,23.889h13.798L538.448,184.934z"/>
<path id="path3081" d="M674.4,208.26v23.251h-21.871v-66.686h31.505c22.222,0,29.551,6.012,29.551,18.993
	c0,7.68-3.44,14.18-11.228,16.305c7.043,2.581,11.302,4.249,11.302,17.686c0,8.71-0.318,11.663,2.327,11.663v2.039h-22.147
	c-0.53-1.476-1.062-5.736-1.062-11.673c0-8.7-1.497-11.578-11.685-11.578h-6.671H674.4L674.4,208.26z M674.4,193.623h8.613
	c6.745,0,10.356-1.657,10.356-6.289c0-4.727-3.707-6.947-8.784-6.947H674.4V193.623z"/>
<path id="path3085" d="M306.727,427.744c0-45.218,36.646-81.864,81.854-81.864c45.229,0,81.875,36.646,81.875,81.864
	c0,45.208-36.646,81.854-81.875,81.854C343.373,509.599,306.727,472.952,306.727,427.744 M282.731,161.469V302.7
	c10.431-5.768,31.261-24.303,105.35-24.303c92.625,0,180.598,48.628,180.598,151.651c0,127.349-137.77,145.874-180.598,145.874
	c-27.777,0-70.616-3.474-108.823-25.472v19.683H166.971V161.469H282.731z"/>
<path id="path3085_1_" fill="#FFFFFF" d="M306.727,426.275c0-45.22,36.646-81.865,81.854-81.865
	c45.229,0,81.875,36.646,81.875,81.865c0,45.207-36.646,81.854-81.875,81.854C343.373,508.129,306.727,471.482,306.727,426.275"/>
</svg>
